<svg xmlns="http://www.w3.org/2000/svg" xmlns:xlink="http://www.w3.org/1999/xlink" width="500" zoomAndPan="magnify"
    viewBox="0 0 375 374.999991" height="500" preserveAspectRatio="xMidYMid meet" version="1.0">
    <defs>
        <g />
        <clipPath id="f7902b87e9">
            <path
                d="M 110.515625 136.59375 L 161.984375 136.59375 L 161.984375 180.777344 L 110.515625 180.777344 Z M 110.515625 136.59375 "
                clip-rule="nonzero" />
        </clipPath>
        <clipPath id="4a28fc63c1">
            <path d="M 136 93.027344 L 212.980469 93.027344 L 212.980469 180.777344 L 136 180.777344 Z M 136 93.027344 "
                clip-rule="nonzero" />
        </clipPath>
        <clipPath id="d4549a8d3c">
            <path
                d="M 187.246094 93.027344 L 264.164062 93.027344 L 264.164062 180.777344 L 187.246094 180.777344 Z M 187.246094 93.027344 "
                clip-rule="nonzero" />
        </clipPath>
    </defs>
    <rect x="-37.5" width="450" fill="#ffffff" y="-37.499999" height="449.999989" fill-opacity="1" />
    <rect x="-37.5" width="450" fill="#ffffff" y="-37.499999" height="449.999989" fill-opacity="1" />
    <rect x="-37.5" width="450" fill="#1836b2" y="-37.499999" height="449.999989" fill-opacity="1" />
    <g clip-path="url(#f7902b87e9)">
        <path fill="#86c7ed"
            d="M 148.925781 136.640625 L 123.335938 136.640625 L 110.515625 158.921875 L 123.335938 181.15625 L 148.925781 181.15625 L 161.746094 158.921875 L 148.925781 136.640625 "
            fill-opacity="1" fill-rule="nonzero" />
    </g>
    <g clip-path="url(#4a28fc63c1)">
        <path fill="#a066cb"
            d="M 204.875 144.867188 L 204.878906 144.863281 L 204.015625 143.363281 L 200.160156 136.640625 L 200.140625 136.640625 L 182.90625 106.707031 L 182.902344 106.710938 L 174.519531 92.171875 L 148.925781 92.171875 L 136.105469 114.40625 L 144.734375 129.371094 L 165.855469 166.074219 L 174.519531 181.15625 L 200.160156 181.15625 L 212.929688 158.921875 L 204.875 144.867188 "
            fill-opacity="1" fill-rule="nonzero" />
    </g>
    <g clip-path="url(#d4549a8d3c)">
        <path fill="#ffffff"
            d="M 255.457031 143.785156 L 255.492188 143.765625 L 233.566406 105.605469 L 233.515625 105.640625 L 225.753906 92.171875 L 200.160156 92.171875 L 187.339844 114.40625 L 200.160156 136.640625 L 200.167969 136.640625 L 212.96875 158.855469 L 212.929688 158.921875 L 225.753906 181.15625 L 251.34375 181.15625 L 264.164062 158.921875 L 255.457031 143.785156 "
            fill-opacity="1" fill-rule="nonzero" />
    </g>
    <g fill="#000000" fill-opacity="1">
        <g transform="translate(57.117188, 237.746996)">
            <g>
                <path
                    d="M 27.453125 -34.75 L 26.5 -27.703125 L 18.296875 -27.703125 L 18.296875 0 L 9.046875 0 L 9.046875 -27.703125 L 0.34375 -27.703125 L 0.34375 -34.75 Z M 27.453125 -34.75 " />
            </g>
        </g>
    </g>
    <g fill="#000000" fill-opacity="1">
        <g transform="translate(84.462958, 237.746996)">
            <g>
                <path
                    d="M 26.75 -13.75 C 26.75 -13.550781 26.695312 -12.550781 26.59375 -10.75 L 10.296875 -10.75 C 10.535156 -8.71875 11.113281 -7.328125 12.03125 -6.578125 C 12.945312 -5.828125 14.253906 -5.453125 15.953125 -5.453125 C 16.953125 -5.453125 17.941406 -5.640625 18.921875 -6.015625 C 19.910156 -6.398438 20.988281 -6.992188 22.15625 -7.796875 L 25.75 -2.90625 C 24.351562 -1.738281 22.753906 -0.8125 20.953125 -0.125 C 19.148438 0.5625 17.195312 0.90625 15.09375 0.90625 C 10.5625 0.90625 7.117188 -0.367188 4.765625 -2.921875 C 2.421875 -5.472656 1.25 -8.898438 1.25 -13.203125 C 1.25 -15.898438 1.738281 -18.332031 2.71875 -20.5 C 3.707031 -22.664062 5.164062 -24.378906 7.09375 -25.640625 C 9.03125 -26.910156 11.363281 -27.546875 14.09375 -27.546875 C 18 -27.546875 21.082031 -26.335938 23.34375 -23.921875 C 25.613281 -21.503906 26.75 -18.113281 26.75 -13.75 Z M 18 -16.25 C 17.96875 -18.019531 17.664062 -19.382812 17.09375 -20.34375 C 16.53125 -21.3125 15.582031 -21.796875 14.25 -21.796875 C 13.019531 -21.796875 12.085938 -21.363281 11.453125 -20.5 C 10.816406 -19.632812 10.414062 -18.117188 10.25 -15.953125 L 18 -15.953125 Z M 18 -16.25 " />
            </g>
        </g>
    </g>
    <g fill="#000000" fill-opacity="1">
        <g transform="translate(112.208665, 237.746996)">
            <g>
                <path
                    d="M 14.65625 -27.546875 C 16.582031 -27.546875 18.3125 -27.257812 19.84375 -26.6875 C 21.382812 -26.125 22.785156 -25.28125 24.046875 -24.15625 L 20.296875 -18.953125 C 18.765625 -20.179688 17.148438 -20.796875 15.453125 -20.796875 C 13.816406 -20.796875 12.582031 -20.203125 11.75 -19.015625 C 10.914062 -17.835938 10.5 -15.882812 10.5 -13.15625 C 10.5 -10.488281 10.914062 -8.628906 11.75 -7.578125 C 12.582031 -6.523438 13.78125 -6 15.34375 -6 C 16.175781 -6 16.941406 -6.128906 17.640625 -6.390625 C 18.347656 -6.660156 19.203125 -7.113281 20.203125 -7.75 L 24.046875 -2.296875 C 21.484375 -0.160156 18.4375 0.90625 14.90625 0.90625 C 12.101562 0.90625 9.675781 0.320312 7.625 -0.84375 C 5.570312 -2.007812 3.992188 -3.648438 2.890625 -5.765625 C 1.796875 -7.890625 1.25 -10.332031 1.25 -13.09375 C 1.25 -15.894531 1.796875 -18.382812 2.890625 -20.5625 C 3.992188 -22.75 5.550781 -24.457031 7.5625 -25.6875 C 9.582031 -26.925781 11.945312 -27.546875 14.65625 -27.546875 Z M 14.65625 -27.546875 " />
            </g>
        </g>
    </g>
    <g fill="#000000" fill-opacity="1">
        <g transform="translate(136.154957, 237.746996)">
            <g>
                <path
                    d="M 19.09375 -27.546875 C 21.363281 -27.546875 23.148438 -26.835938 24.453125 -25.421875 C 25.753906 -24.003906 26.40625 -22.046875 26.40625 -19.546875 L 26.40625 0 L 17.5 0 L 17.5 -17.953125 C 17.5 -19.117188 17.320312 -19.925781 16.96875 -20.375 C 16.625 -20.820312 16.117188 -21.046875 15.453125 -21.046875 C 14.085938 -21.046875 12.769531 -20.03125 11.5 -18 L 11.5 0 L 2.59375 0 L 2.59375 -37.15625 L 11.5 -38.046875 L 11.5 -24.046875 C 12.601562 -25.242188 13.769531 -26.125 15 -26.6875 C 16.226562 -27.257812 17.59375 -27.546875 19.09375 -27.546875 Z M 19.09375 -27.546875 " />
            </g>
        </g>
    </g>
    <g fill="#000000" fill-opacity="1">
        <g transform="translate(164.900511, 237.746996)">
            <g />
        </g>
    </g>
    <g fill="#000000" fill-opacity="1">
        <g transform="translate(176.298745, 237.746996)">
            <g>
                <path
                    d="M 26.75 -13.75 C 26.75 -13.550781 26.695312 -12.550781 26.59375 -10.75 L 10.296875 -10.75 C 10.535156 -8.71875 11.113281 -7.328125 12.03125 -6.578125 C 12.945312 -5.828125 14.253906 -5.453125 15.953125 -5.453125 C 16.953125 -5.453125 17.941406 -5.640625 18.921875 -6.015625 C 19.910156 -6.398438 20.988281 -6.992188 22.15625 -7.796875 L 25.75 -2.90625 C 24.351562 -1.738281 22.753906 -0.8125 20.953125 -0.125 C 19.148438 0.5625 17.195312 0.90625 15.09375 0.90625 C 10.5625 0.90625 7.117188 -0.367188 4.765625 -2.921875 C 2.421875 -5.472656 1.25 -8.898438 1.25 -13.203125 C 1.25 -15.898438 1.738281 -18.332031 2.71875 -20.5 C 3.707031 -22.664062 5.164062 -24.378906 7.09375 -25.640625 C 9.03125 -26.910156 11.363281 -27.546875 14.09375 -27.546875 C 18 -27.546875 21.082031 -26.335938 23.34375 -23.921875 C 25.613281 -21.503906 26.75 -18.113281 26.75 -13.75 Z M 18 -16.25 C 17.96875 -18.019531 17.664062 -19.382812 17.09375 -20.34375 C 16.53125 -21.3125 15.582031 -21.796875 14.25 -21.796875 C 13.019531 -21.796875 12.085938 -21.363281 11.453125 -20.5 C 10.816406 -19.632812 10.414062 -18.117188 10.25 -15.953125 L 18 -15.953125 Z M 18 -16.25 " />
            </g>
        </g>
    </g>
    <g fill="#000000" fill-opacity="1">
        <g transform="translate(204.044452, 237.746996)">
            <g>
                <path
                    d="M 20.296875 -1.296875 C 19.265625 -0.566406 18.066406 -0.0195312 16.703125 0.34375 C 15.335938 0.71875 14.003906 0.90625 12.703125 0.90625 C 6.535156 0.90625 3.453125 -2.492188 3.453125 -9.296875 L 3.453125 -20.546875 L 0 -20.546875 L 0 -26.65625 L 3.453125 -26.65625 L 3.453125 -32.296875 L 12.34375 -33.34375 L 12.34375 -26.65625 L 18.40625 -26.65625 L 17.5 -20.546875 L 12.34375 -20.546875 L 12.34375 -9.40625 C 12.34375 -8.195312 12.535156 -7.34375 12.921875 -6.84375 C 13.304688 -6.34375 13.882812 -6.09375 14.65625 -6.09375 C 15.582031 -6.09375 16.476562 -6.34375 17.34375 -6.84375 Z M 20.296875 -1.296875 " />
            </g>
        </g>
    </g>
    <g fill="#000000" fill-opacity="1">
        <g transform="translate(223.691415, 237.746996)">
            <g />
        </g>
    </g>
    <g fill="#000000" fill-opacity="1">
        <g transform="translate(235.08965, 237.746996)">
            <g>
                <path
                    d="M 17.5 -35.65625 C 19.695312 -35.65625 21.675781 -35.320312 23.4375 -34.65625 C 25.207031 -33.988281 26.863281 -33.003906 28.40625 -31.703125 L 24.046875 -26.546875 C 23.015625 -27.316406 22.015625 -27.898438 21.046875 -28.296875 C 20.078125 -28.703125 19.046875 -28.90625 17.953125 -28.90625 C 15.753906 -28.90625 14.035156 -27.953125 12.796875 -26.046875 C 11.566406 -24.148438 10.953125 -21.285156 10.953125 -17.453125 C 10.953125 -13.617188 11.578125 -10.765625 12.828125 -8.890625 C 14.078125 -7.023438 15.816406 -6.09375 18.046875 -6.09375 C 19.242188 -6.09375 20.351562 -6.332031 21.375 -6.8125 C 22.394531 -7.300781 23.503906 -8.015625 24.703125 -8.953125 L 28.796875 -3.75 C 27.429688 -2.382812 25.789062 -1.265625 23.875 -0.390625 C 21.957031 0.472656 19.882812 0.90625 17.65625 0.90625 C 14.351562 0.90625 11.472656 0.195312 9.015625 -1.21875 C 6.566406 -2.632812 4.675781 -4.71875 3.34375 -7.46875 C 2.007812 -10.21875 1.34375 -13.546875 1.34375 -17.453125 C 1.34375 -21.253906 2.023438 -24.519531 3.390625 -27.25 C 4.765625 -29.976562 6.664062 -32.0625 9.09375 -33.5 C 11.53125 -34.9375 14.332031 -35.65625 17.5 -35.65625 Z M 17.5 -35.65625 " />
            </g>
        </g>
    </g>
    <g fill="#000000" fill-opacity="1">
        <g transform="translate(264.035167, 237.746996)">
            <g>
                <path
                    d="M 11.5 -26.65625 L 11.5 0 L 2.59375 0 L 2.59375 -26.65625 Z M 7.0625 -41 C 8.5625 -41 9.785156 -40.53125 10.734375 -39.59375 C 11.679688 -38.664062 12.15625 -37.5 12.15625 -36.09375 C 12.15625 -34.695312 11.679688 -33.53125 10.734375 -32.59375 C 9.785156 -31.664062 8.5625 -31.203125 7.0625 -31.203125 C 5.5625 -31.203125 4.332031 -31.664062 3.375 -32.59375 C 2.425781 -33.53125 1.953125 -34.695312 1.953125 -36.09375 C 1.953125 -37.5 2.425781 -38.664062 3.375 -39.59375 C 4.332031 -40.53125 5.5625 -41 7.0625 -41 Z M 7.0625 -41 " />
            </g>
        </g>
    </g>
    <g fill="#000000" fill-opacity="1">
        <g transform="translate(278.132983, 237.746996)">
            <g>
                <path
                    d="M 26.75 -13.75 C 26.75 -13.550781 26.695312 -12.550781 26.59375 -10.75 L 10.296875 -10.75 C 10.535156 -8.71875 11.113281 -7.328125 12.03125 -6.578125 C 12.945312 -5.828125 14.253906 -5.453125 15.953125 -5.453125 C 16.953125 -5.453125 17.941406 -5.640625 18.921875 -6.015625 C 19.910156 -6.398438 20.988281 -6.992188 22.15625 -7.796875 L 25.75 -2.90625 C 24.351562 -1.738281 22.753906 -0.8125 20.953125 -0.125 C 19.148438 0.5625 17.195312 0.90625 15.09375 0.90625 C 10.5625 0.90625 7.117188 -0.367188 4.765625 -2.921875 C 2.421875 -5.472656 1.25 -8.898438 1.25 -13.203125 C 1.25 -15.898438 1.738281 -18.332031 2.71875 -20.5 C 3.707031 -22.664062 5.164062 -24.378906 7.09375 -25.640625 C 9.03125 -26.910156 11.363281 -27.546875 14.09375 -27.546875 C 18 -27.546875 21.082031 -26.335938 23.34375 -23.921875 C 25.613281 -21.503906 26.75 -18.113281 26.75 -13.75 Z M 18 -16.25 C 17.96875 -18.019531 17.664062 -19.382812 17.09375 -20.34375 C 16.53125 -21.3125 15.582031 -21.796875 14.25 -21.796875 C 13.019531 -21.796875 12.085938 -21.363281 11.453125 -20.5 C 10.816406 -19.632812 10.414062 -18.117188 10.25 -15.953125 L 18 -15.953125 Z M 18 -16.25 " />
            </g>
        </g>
    </g>
    <g fill="#000000" fill-opacity="1">
        <g transform="translate(305.878678, 237.746996)">
            <g>
                <path
                    d="M 6 -8.75 C 7.332031 -8.75 8.472656 -8.273438 9.421875 -7.328125 C 10.367188 -6.378906 10.84375 -5.238281 10.84375 -3.90625 C 10.84375 -2.570312 10.367188 -1.4375 9.421875 -0.5 C 8.472656 0.4375 7.332031 0.90625 6 0.90625 C 4.664062 0.90625 3.523438 0.4375 2.578125 -0.5 C 1.628906 -1.4375 1.15625 -2.570312 1.15625 -3.90625 C 1.15625 -5.238281 1.628906 -6.378906 2.578125 -7.328125 C 3.523438 -8.273438 4.664062 -8.75 6 -8.75 Z M 6 -8.75 " />
            </g>
        </g>
    </g>
    <g fill="#000000" fill-opacity="1">
        <g transform="translate(65.027344, 273.294385)">
            <g>
                <path d="M 4.265625 -13.8125 L 4.265625 0 L 1.625 0 L 1.625 -13.8125 Z M 4.265625 -13.8125 " />
            </g>
        </g>
    </g>
    <g fill="#000000" fill-opacity="1">
        <g transform="translate(70.905029, 273.294385)">
            <g>
                <path
                    d="M 10.4375 -14.8125 L 10.4375 0 L 8.1875 0 L 8 -1.34375 C 7.664062 -0.832031 7.238281 -0.429688 6.71875 -0.140625 C 6.207031 0.148438 5.628906 0.296875 4.984375 0.296875 C 3.691406 0.296875 2.695312 -0.203125 2 -1.203125 C 1.300781 -2.203125 0.953125 -3.5625 0.953125 -5.28125 C 0.953125 -6.363281 1.125 -7.328125 1.46875 -8.171875 C 1.820312 -9.015625 2.320312 -9.675781 2.96875 -10.15625 C 3.613281 -10.632812 4.363281 -10.875 5.21875 -10.875 C 6.226562 -10.875 7.113281 -10.492188 7.875 -9.734375 L 7.875 -15.09375 Z M 5.703125 -1.640625 C 6.148438 -1.640625 6.546875 -1.75 6.890625 -1.96875 C 7.242188 -2.1875 7.570312 -2.53125 7.875 -3 L 7.875 -7.84375 C 7.570312 -8.21875 7.265625 -8.492188 6.953125 -8.671875 C 6.640625 -8.859375 6.273438 -8.953125 5.859375 -8.953125 C 5.179688 -8.953125 4.644531 -8.648438 4.25 -8.046875 C 3.851562 -7.441406 3.65625 -6.523438 3.65625 -5.296875 C 3.65625 -3.992188 3.828125 -3.054688 4.171875 -2.484375 C 4.523438 -1.921875 5.035156 -1.640625 5.703125 -1.640625 Z M 5.703125 -1.640625 " />
            </g>
        </g>
    </g>
    <g fill="#000000" fill-opacity="1">
        <g transform="translate(82.880309, 273.294385)">
            <g>
                <path
                    d="M 10.21875 -5.546875 C 10.21875 -5.410156 10.195312 -5.0625 10.15625 -4.5 L 3.515625 -4.5 C 3.597656 -3.46875 3.863281 -2.734375 4.3125 -2.296875 C 4.769531 -1.859375 5.375 -1.640625 6.125 -1.640625 C 6.582031 -1.640625 7.019531 -1.710938 7.4375 -1.859375 C 7.851562 -2.015625 8.296875 -2.253906 8.765625 -2.578125 L 9.8125 -1.125 C 8.644531 -0.175781 7.34375 0.296875 5.90625 0.296875 C 4.289062 0.296875 3.046875 -0.191406 2.171875 -1.171875 C 1.296875 -2.160156 0.859375 -3.507812 0.859375 -5.21875 C 0.859375 -6.300781 1.046875 -7.269531 1.421875 -8.125 C 1.796875 -8.988281 2.332031 -9.660156 3.03125 -10.140625 C 3.738281 -10.628906 4.582031 -10.875 5.5625 -10.875 C 7.039062 -10.875 8.1875 -10.40625 9 -9.46875 C 9.8125 -8.53125 10.21875 -7.222656 10.21875 -5.546875 Z M 7.6875 -6.28125 C 7.6875 -8.132812 7 -9.0625 5.625 -9.0625 C 5 -9.0625 4.507812 -8.832031 4.15625 -8.375 C 3.800781 -7.914062 3.585938 -7.175781 3.515625 -6.15625 L 7.6875 -6.15625 Z M 7.140625 -16.40625 L 8.1875 -14.40625 L 3.65625 -12.59375 L 2.9375 -13.90625 Z M 7.140625 -16.40625 " />
            </g>
        </g>
    </g>
    <g fill="#000000" fill-opacity="1">
        <g transform="translate(93.855982, 273.294385)">
            <g>
                <path
                    d="M 10.21875 -5.546875 C 10.21875 -5.410156 10.195312 -5.0625 10.15625 -4.5 L 3.515625 -4.5 C 3.597656 -3.46875 3.863281 -2.734375 4.3125 -2.296875 C 4.769531 -1.859375 5.375 -1.640625 6.125 -1.640625 C 6.582031 -1.640625 7.019531 -1.710938 7.4375 -1.859375 C 7.851562 -2.015625 8.296875 -2.253906 8.765625 -2.578125 L 9.8125 -1.125 C 8.644531 -0.175781 7.34375 0.296875 5.90625 0.296875 C 4.289062 0.296875 3.046875 -0.191406 2.171875 -1.171875 C 1.296875 -2.160156 0.859375 -3.507812 0.859375 -5.21875 C 0.859375 -6.300781 1.046875 -7.269531 1.421875 -8.125 C 1.796875 -8.988281 2.332031 -9.660156 3.03125 -10.140625 C 3.738281 -10.628906 4.582031 -10.875 5.5625 -10.875 C 7.039062 -10.875 8.1875 -10.40625 9 -9.46875 C 9.8125 -8.53125 10.21875 -7.222656 10.21875 -5.546875 Z M 7.6875 -6.28125 C 7.6875 -8.132812 7 -9.0625 5.625 -9.0625 C 5 -9.0625 4.507812 -8.832031 4.15625 -8.375 C 3.800781 -7.914062 3.585938 -7.175781 3.515625 -6.15625 L 7.6875 -6.15625 Z M 7.6875 -6.28125 " />
            </g>
        </g>
    </g>
    <g fill="#000000" fill-opacity="1">
        <g transform="translate(104.831655, 273.294385)">
            <g>
                <path
                    d="M 4.875 -10.875 C 6.300781 -10.875 7.554688 -10.457031 8.640625 -9.625 L 7.640625 -8.125 C 6.734375 -8.695312 5.847656 -8.984375 4.984375 -8.984375 C 4.472656 -8.984375 4.078125 -8.882812 3.796875 -8.6875 C 3.515625 -8.5 3.375 -8.242188 3.375 -7.921875 C 3.375 -7.679688 3.429688 -7.476562 3.546875 -7.3125 C 3.671875 -7.15625 3.890625 -7.003906 4.203125 -6.859375 C 4.523438 -6.722656 4.988281 -6.570312 5.59375 -6.40625 C 6.738281 -6.09375 7.585938 -5.679688 8.140625 -5.171875 C 8.703125 -4.671875 8.984375 -3.96875 8.984375 -3.0625 C 8.984375 -2.007812 8.554688 -1.1875 7.703125 -0.59375 C 6.847656 0 5.785156 0.296875 4.515625 0.296875 C 3.648438 0.296875 2.859375 0.164062 2.140625 -0.09375 C 1.429688 -0.363281 0.816406 -0.734375 0.296875 -1.203125 L 1.578125 -2.640625 C 2.492188 -1.941406 3.453125 -1.59375 4.453125 -1.59375 C 5.023438 -1.59375 5.484375 -1.707031 5.828125 -1.9375 C 6.171875 -2.164062 6.34375 -2.476562 6.34375 -2.875 C 6.34375 -3.1875 6.273438 -3.429688 6.140625 -3.609375 C 6.015625 -3.785156 5.789062 -3.941406 5.46875 -4.078125 C 5.144531 -4.222656 4.632812 -4.394531 3.9375 -4.59375 C 2.851562 -4.894531 2.054688 -5.304688 1.546875 -5.828125 C 1.046875 -6.359375 0.796875 -7.015625 0.796875 -7.796875 C 0.796875 -8.390625 0.960938 -8.914062 1.296875 -9.375 C 1.640625 -9.84375 2.125 -10.207031 2.75 -10.46875 C 3.375 -10.738281 4.082031 -10.875 4.875 -10.875 Z M 4.875 -10.875 " />
            </g>
        </g>
    </g>
    <g fill="#000000" fill-opacity="1">
        <g transform="translate(114.347897, 273.294385)">
            <g />
        </g>
    </g>
    <g fill="#000000" fill-opacity="1">
        <g transform="translate(119.345921, 273.294385)">
            <g>
                <path
                    d="M 4.09375 -10.578125 L 4.09375 0 L 1.546875 0 L 1.546875 -10.578125 Z M 2.796875 -15.9375 C 3.273438 -15.9375 3.664062 -15.785156 3.96875 -15.484375 C 4.269531 -15.191406 4.421875 -14.820312 4.421875 -14.375 C 4.421875 -13.9375 4.269531 -13.570312 3.96875 -13.28125 C 3.664062 -12.988281 3.273438 -12.84375 2.796875 -12.84375 C 2.328125 -12.84375 1.941406 -12.988281 1.640625 -13.28125 C 1.347656 -13.570312 1.203125 -13.9375 1.203125 -14.375 C 1.203125 -14.820312 1.347656 -15.191406 1.640625 -15.484375 C 1.941406 -15.785156 2.328125 -15.9375 2.796875 -15.9375 Z M 2.796875 -15.9375 " />
            </g>
        </g>
    </g>
    <g fill="#000000" fill-opacity="1">
        <g transform="translate(124.983692, 273.294385)">
            <g>
                <path
                    d="M 7.1875 -10.875 C 8.125 -10.875 8.859375 -10.59375 9.390625 -10.03125 C 9.921875 -9.46875 10.1875 -8.675781 10.1875 -7.65625 L 10.1875 0 L 7.625 0 L 7.625 -7.265625 C 7.625 -7.890625 7.507812 -8.328125 7.28125 -8.578125 C 7.0625 -8.828125 6.738281 -8.953125 6.3125 -8.953125 C 5.875 -8.953125 5.476562 -8.816406 5.125 -8.546875 C 4.769531 -8.273438 4.425781 -7.878906 4.09375 -7.359375 L 4.09375 0 L 1.546875 0 L 1.546875 -10.578125 L 3.765625 -10.578125 L 3.953125 -9.203125 C 4.828125 -10.316406 5.90625 -10.875 7.1875 -10.875 Z M 7.1875 -10.875 " />
            </g>
        </g>
    </g>
    <g fill="#000000" fill-opacity="1">
        <g transform="translate(136.599113, 273.294385)">
            <g>
                <path
                    d="M 7.1875 -10.875 C 8.125 -10.875 8.859375 -10.59375 9.390625 -10.03125 C 9.921875 -9.46875 10.1875 -8.675781 10.1875 -7.65625 L 10.1875 0 L 7.625 0 L 7.625 -7.265625 C 7.625 -7.890625 7.507812 -8.328125 7.28125 -8.578125 C 7.0625 -8.828125 6.738281 -8.953125 6.3125 -8.953125 C 5.875 -8.953125 5.476562 -8.816406 5.125 -8.546875 C 4.769531 -8.273438 4.425781 -7.878906 4.09375 -7.359375 L 4.09375 0 L 1.546875 0 L 1.546875 -10.578125 L 3.765625 -10.578125 L 3.953125 -9.203125 C 4.828125 -10.316406 5.90625 -10.875 7.1875 -10.875 Z M 7.1875 -10.875 " />
            </g>
        </g>
    </g>
    <g fill="#000000" fill-opacity="1">
        <g transform="translate(148.214533, 273.294385)">
            <g>
                <path
                    d="M 5.859375 -10.875 C 7.421875 -10.875 8.632812 -10.378906 9.5 -9.390625 C 10.375 -8.398438 10.8125 -7.035156 10.8125 -5.296875 C 10.8125 -4.191406 10.613281 -3.210938 10.21875 -2.359375 C 9.820312 -1.515625 9.25 -0.859375 8.5 -0.390625 C 7.75 0.0664062 6.863281 0.296875 5.84375 0.296875 C 4.28125 0.296875 3.054688 -0.195312 2.171875 -1.1875 C 1.296875 -2.1875 0.859375 -3.554688 0.859375 -5.296875 C 0.859375 -6.398438 1.054688 -7.375 1.453125 -8.21875 C 1.859375 -9.0625 2.4375 -9.710938 3.1875 -10.171875 C 3.9375 -10.640625 4.828125 -10.875 5.859375 -10.875 Z M 5.859375 -8.9375 C 4.328125 -8.9375 3.5625 -7.722656 3.5625 -5.296875 C 3.5625 -4.046875 3.75 -3.125 4.125 -2.53125 C 4.507812 -1.9375 5.082031 -1.640625 5.84375 -1.640625 C 6.601562 -1.640625 7.171875 -1.9375 7.546875 -2.53125 C 7.929688 -3.132812 8.125 -4.054688 8.125 -5.296875 C 8.125 -6.535156 7.929688 -7.453125 7.546875 -8.046875 C 7.171875 -8.640625 6.609375 -8.9375 5.859375 -8.9375 Z M 5.859375 -8.9375 " />
            </g>
        </g>
    </g>
    <g fill="#000000" fill-opacity="1">
        <g transform="translate(159.889932, 273.294385)">
            <g>
                <path
                    d="M 10.046875 -10.578125 L 6.59375 0 L 3.546875 0 L 0.046875 -10.578125 L 2.8125 -10.578125 L 5.078125 -2.0625 L 7.40625 -10.578125 Z M 10.046875 -10.578125 " />
            </g>
        </g>
    </g>
    <g fill="#000000" fill-opacity="1">
        <g transform="translate(169.965962, 273.294385)">
            <g>
                <path
                    d="M 9.359375 -2.796875 C 9.359375 -2.390625 9.421875 -2.085938 9.546875 -1.890625 C 9.671875 -1.691406 9.875 -1.539062 10.15625 -1.4375 L 9.625 0.265625 C 9.019531 0.210938 8.523438 0.0664062 8.140625 -0.171875 C 7.765625 -0.421875 7.476562 -0.789062 7.28125 -1.28125 C 6.914062 -0.75 6.460938 -0.351562 5.921875 -0.09375 C 5.390625 0.164062 4.789062 0.296875 4.125 0.296875 C 3.070312 0.296875 2.238281 0 1.625 -0.59375 C 1.007812 -1.195312 0.703125 -1.984375 0.703125 -2.953125 C 0.703125 -4.109375 1.117188 -4.988281 1.953125 -5.59375 C 2.785156 -6.195312 3.972656 -6.5 5.515625 -6.5 L 6.84375 -6.5 L 6.84375 -7.09375 C 6.84375 -7.78125 6.6875 -8.257812 6.375 -8.53125 C 6.0625 -8.800781 5.554688 -8.9375 4.859375 -8.9375 C 4.085938 -8.9375 3.15625 -8.75 2.0625 -8.375 L 1.453125 -10.125 C 2.773438 -10.625 4.054688 -10.875 5.296875 -10.875 C 8.003906 -10.875 9.359375 -9.660156 9.359375 -7.234375 Z M 4.796875 -1.5625 C 5.660156 -1.5625 6.34375 -1.992188 6.84375 -2.859375 L 6.84375 -5 L 5.78125 -5 C 4.125 -5 3.296875 -4.382812 3.296875 -3.15625 C 3.296875 -2.65625 3.421875 -2.265625 3.671875 -1.984375 C 3.929688 -1.703125 4.304688 -1.5625 4.796875 -1.5625 Z M 4.796875 -1.5625 " />
            </g>
        </g>
    </g>
    <g fill="#000000" fill-opacity="1">
        <g transform="translate(180.881657, 273.294385)">
            <g>
                <path
                    d="M 7.1875 -10.875 C 8.125 -10.875 8.859375 -10.59375 9.390625 -10.03125 C 9.921875 -9.46875 10.1875 -8.675781 10.1875 -7.65625 L 10.1875 0 L 7.625 0 L 7.625 -7.265625 C 7.625 -7.890625 7.507812 -8.328125 7.28125 -8.578125 C 7.0625 -8.828125 6.738281 -8.953125 6.3125 -8.953125 C 5.875 -8.953125 5.476562 -8.816406 5.125 -8.546875 C 4.769531 -8.273438 4.425781 -7.878906 4.09375 -7.359375 L 4.09375 0 L 1.546875 0 L 1.546875 -10.578125 L 3.765625 -10.578125 L 3.953125 -9.203125 C 4.828125 -10.316406 5.90625 -10.875 7.1875 -10.875 Z M 7.1875 -10.875 " />
            </g>
        </g>
    </g>
    <g fill="#000000" fill-opacity="1">
        <g transform="translate(192.497078, 273.294385)">
            <g>
                <path
                    d="M 7.59375 -0.5 C 7.226562 -0.226562 6.8125 -0.03125 6.34375 0.09375 C 5.882812 0.226562 5.414062 0.296875 4.9375 0.296875 C 3.894531 0.285156 3.101562 -0.00390625 2.5625 -0.578125 C 2.03125 -1.160156 1.765625 -2.019531 1.765625 -3.15625 L 1.765625 -8.734375 L 0.09375 -8.734375 L 0.09375 -10.578125 L 1.765625 -10.578125 L 1.765625 -12.921875 L 4.3125 -13.21875 L 4.3125 -10.578125 L 6.78125 -10.578125 L 6.515625 -8.734375 L 4.3125 -8.734375 L 4.3125 -3.21875 C 4.3125 -2.695312 4.398438 -2.320312 4.578125 -2.09375 C 4.765625 -1.875 5.050781 -1.765625 5.4375 -1.765625 C 5.820312 -1.765625 6.242188 -1.890625 6.703125 -2.140625 Z M 7.59375 -0.5 " />
            </g>
        </g>
    </g>
    <g fill="#000000" fill-opacity="1">
        <g transform="translate(199.994124, 273.294385)">
            <g>
                <path
                    d="M 10.21875 -5.546875 C 10.21875 -5.410156 10.195312 -5.0625 10.15625 -4.5 L 3.515625 -4.5 C 3.597656 -3.46875 3.863281 -2.734375 4.3125 -2.296875 C 4.769531 -1.859375 5.375 -1.640625 6.125 -1.640625 C 6.582031 -1.640625 7.019531 -1.710938 7.4375 -1.859375 C 7.851562 -2.015625 8.296875 -2.253906 8.765625 -2.578125 L 9.8125 -1.125 C 8.644531 -0.175781 7.34375 0.296875 5.90625 0.296875 C 4.289062 0.296875 3.046875 -0.191406 2.171875 -1.171875 C 1.296875 -2.160156 0.859375 -3.507812 0.859375 -5.21875 C 0.859375 -6.300781 1.046875 -7.269531 1.421875 -8.125 C 1.796875 -8.988281 2.332031 -9.660156 3.03125 -10.140625 C 3.738281 -10.628906 4.582031 -10.875 5.5625 -10.875 C 7.039062 -10.875 8.1875 -10.40625 9 -9.46875 C 9.8125 -8.53125 10.21875 -7.222656 10.21875 -5.546875 Z M 7.6875 -6.28125 C 7.6875 -8.132812 7 -9.0625 5.625 -9.0625 C 5 -9.0625 4.507812 -8.832031 4.15625 -8.375 C 3.800781 -7.914062 3.585938 -7.175781 3.515625 -6.15625 L 7.6875 -6.15625 Z M 7.6875 -6.28125 " />
            </g>
        </g>
    </g>
    <g fill="#000000" fill-opacity="1">
        <g transform="translate(210.969797, 273.294385)">
            <g>
                <path
                    d="M 4.875 -10.875 C 6.300781 -10.875 7.554688 -10.457031 8.640625 -9.625 L 7.640625 -8.125 C 6.734375 -8.695312 5.847656 -8.984375 4.984375 -8.984375 C 4.472656 -8.984375 4.078125 -8.882812 3.796875 -8.6875 C 3.515625 -8.5 3.375 -8.242188 3.375 -7.921875 C 3.375 -7.679688 3.429688 -7.476562 3.546875 -7.3125 C 3.671875 -7.15625 3.890625 -7.003906 4.203125 -6.859375 C 4.523438 -6.722656 4.988281 -6.570312 5.59375 -6.40625 C 6.738281 -6.09375 7.585938 -5.679688 8.140625 -5.171875 C 8.703125 -4.671875 8.984375 -3.96875 8.984375 -3.0625 C 8.984375 -2.007812 8.554688 -1.1875 7.703125 -0.59375 C 6.847656 0 5.785156 0.296875 4.515625 0.296875 C 3.648438 0.296875 2.859375 0.164062 2.140625 -0.09375 C 1.429688 -0.363281 0.816406 -0.734375 0.296875 -1.203125 L 1.578125 -2.640625 C 2.492188 -1.941406 3.453125 -1.59375 4.453125 -1.59375 C 5.023438 -1.59375 5.484375 -1.707031 5.828125 -1.9375 C 6.171875 -2.164062 6.34375 -2.476562 6.34375 -2.875 C 6.34375 -3.1875 6.273438 -3.429688 6.140625 -3.609375 C 6.015625 -3.785156 5.789062 -3.941406 5.46875 -4.078125 C 5.144531 -4.222656 4.632812 -4.394531 3.9375 -4.59375 C 2.851562 -4.894531 2.054688 -5.304688 1.546875 -5.828125 C 1.046875 -6.359375 0.796875 -7.015625 0.796875 -7.796875 C 0.796875 -8.390625 0.960938 -8.914062 1.296875 -9.375 C 1.640625 -9.84375 2.125 -10.207031 2.75 -10.46875 C 3.375 -10.738281 4.082031 -10.875 4.875 -10.875 Z M 4.875 -10.875 " />
            </g>
        </g>
    </g>
    <g fill="#000000" fill-opacity="1">
        <g transform="translate(220.48604, 273.294385)">
            <g />
        </g>
    </g>
    <g fill="#000000" fill-opacity="1">
        <g transform="translate(225.484063, 273.294385)">
            <g>
                <path
                    d="M 10.21875 -5.546875 C 10.21875 -5.410156 10.195312 -5.0625 10.15625 -4.5 L 3.515625 -4.5 C 3.597656 -3.46875 3.863281 -2.734375 4.3125 -2.296875 C 4.769531 -1.859375 5.375 -1.640625 6.125 -1.640625 C 6.582031 -1.640625 7.019531 -1.710938 7.4375 -1.859375 C 7.851562 -2.015625 8.296875 -2.253906 8.765625 -2.578125 L 9.8125 -1.125 C 8.644531 -0.175781 7.34375 0.296875 5.90625 0.296875 C 4.289062 0.296875 3.046875 -0.191406 2.171875 -1.171875 C 1.296875 -2.160156 0.859375 -3.507812 0.859375 -5.21875 C 0.859375 -6.300781 1.046875 -7.269531 1.421875 -8.125 C 1.796875 -8.988281 2.332031 -9.660156 3.03125 -10.140625 C 3.738281 -10.628906 4.582031 -10.875 5.5625 -10.875 C 7.039062 -10.875 8.1875 -10.40625 9 -9.46875 C 9.8125 -8.53125 10.21875 -7.222656 10.21875 -5.546875 Z M 7.6875 -6.28125 C 7.6875 -8.132812 7 -9.0625 5.625 -9.0625 C 5 -9.0625 4.507812 -8.832031 4.15625 -8.375 C 3.800781 -7.914062 3.585938 -7.175781 3.515625 -6.15625 L 7.6875 -6.15625 Z M 7.6875 -6.28125 " />
            </g>
        </g>
    </g>
    <g fill="#000000" fill-opacity="1">
        <g transform="translate(236.459736, 273.294385)">
            <g>
                <path
                    d="M 7.1875 -10.875 C 8.125 -10.875 8.859375 -10.59375 9.390625 -10.03125 C 9.921875 -9.46875 10.1875 -8.675781 10.1875 -7.65625 L 10.1875 0 L 7.625 0 L 7.625 -7.265625 C 7.625 -7.890625 7.507812 -8.328125 7.28125 -8.578125 C 7.0625 -8.828125 6.738281 -8.953125 6.3125 -8.953125 C 5.875 -8.953125 5.476562 -8.816406 5.125 -8.546875 C 4.769531 -8.273438 4.425781 -7.878906 4.09375 -7.359375 L 4.09375 0 L 1.546875 0 L 1.546875 -10.578125 L 3.765625 -10.578125 L 3.953125 -9.203125 C 4.828125 -10.316406 5.90625 -10.875 7.1875 -10.875 Z M 7.1875 -10.875 " />
            </g>
        </g>
    </g>
    <g fill="#000000" fill-opacity="1">
        <g transform="translate(248.075157, 273.294385)">
            <g />
        </g>
    </g>
    <g fill="#000000" fill-opacity="1">
        <g transform="translate(253.073181, 273.294385)">
            <g>
                <path
                    d="M 9.359375 -2.796875 C 9.359375 -2.390625 9.421875 -2.085938 9.546875 -1.890625 C 9.671875 -1.691406 9.875 -1.539062 10.15625 -1.4375 L 9.625 0.265625 C 9.019531 0.210938 8.523438 0.0664062 8.140625 -0.171875 C 7.765625 -0.421875 7.476562 -0.789062 7.28125 -1.28125 C 6.914062 -0.75 6.460938 -0.351562 5.921875 -0.09375 C 5.390625 0.164062 4.789062 0.296875 4.125 0.296875 C 3.070312 0.296875 2.238281 0 1.625 -0.59375 C 1.007812 -1.195312 0.703125 -1.984375 0.703125 -2.953125 C 0.703125 -4.109375 1.117188 -4.988281 1.953125 -5.59375 C 2.785156 -6.195312 3.972656 -6.5 5.515625 -6.5 L 6.84375 -6.5 L 6.84375 -7.09375 C 6.84375 -7.78125 6.6875 -8.257812 6.375 -8.53125 C 6.0625 -8.800781 5.554688 -8.9375 4.859375 -8.9375 C 4.085938 -8.9375 3.15625 -8.75 2.0625 -8.375 L 1.453125 -10.125 C 2.773438 -10.625 4.054688 -10.875 5.296875 -10.875 C 8.003906 -10.875 9.359375 -9.660156 9.359375 -7.234375 Z M 4.796875 -1.5625 C 5.660156 -1.5625 6.34375 -1.992188 6.84375 -2.859375 L 6.84375 -5 L 5.78125 -5 C 4.125 -5 3.296875 -4.382812 3.296875 -3.15625 C 3.296875 -2.65625 3.421875 -2.265625 3.671875 -1.984375 C 3.929688 -1.703125 4.304688 -1.5625 4.796875 -1.5625 Z M 4.796875 -1.5625 " />
            </g>
        </g>
    </g>
    <g fill="#000000" fill-opacity="1">
        <g transform="translate(263.988864, 273.294385)">
            <g>
                <path
                    d="M 5.796875 -10.875 C 6.492188 -10.875 7.117188 -10.773438 7.671875 -10.578125 C 8.222656 -10.378906 8.742188 -10.066406 9.234375 -9.640625 L 8.09375 -8.09375 C 7.738281 -8.363281 7.394531 -8.554688 7.0625 -8.671875 C 6.726562 -8.796875 6.359375 -8.859375 5.953125 -8.859375 C 4.367188 -8.859375 3.578125 -7.648438 3.578125 -5.234375 C 3.578125 -4.015625 3.78125 -3.132812 4.1875 -2.59375 C 4.601562 -2.050781 5.191406 -1.78125 5.953125 -1.78125 C 6.328125 -1.78125 6.671875 -1.835938 6.984375 -1.953125 C 7.296875 -2.078125 7.664062 -2.273438 8.09375 -2.546875 L 9.234375 -0.921875 C 8.234375 -0.109375 7.09375 0.296875 5.8125 0.296875 C 4.800781 0.296875 3.921875 0.0703125 3.171875 -0.375 C 2.429688 -0.820312 1.859375 -1.457031 1.453125 -2.28125 C 1.054688 -3.101562 0.859375 -4.078125 0.859375 -5.203125 C 0.859375 -6.316406 1.054688 -7.300781 1.453125 -8.15625 C 1.859375 -9.019531 2.429688 -9.6875 3.171875 -10.15625 C 3.921875 -10.632812 4.796875 -10.875 5.796875 -10.875 Z M 5.796875 -10.875 " />
            </g>
        </g>
    </g>
    <g fill="#000000" fill-opacity="1">
        <g transform="translate(273.545092, 273.294385)">
            <g>
                <path
                    d="M 7.59375 -0.5 C 7.226562 -0.226562 6.8125 -0.03125 6.34375 0.09375 C 5.882812 0.226562 5.414062 0.296875 4.9375 0.296875 C 3.894531 0.285156 3.101562 -0.00390625 2.5625 -0.578125 C 2.03125 -1.160156 1.765625 -2.019531 1.765625 -3.15625 L 1.765625 -8.734375 L 0.09375 -8.734375 L 0.09375 -10.578125 L 1.765625 -10.578125 L 1.765625 -12.921875 L 4.3125 -13.21875 L 4.3125 -10.578125 L 6.78125 -10.578125 L 6.515625 -8.734375 L 4.3125 -8.734375 L 4.3125 -3.21875 C 4.3125 -2.695312 4.398438 -2.320312 4.578125 -2.09375 C 4.765625 -1.875 5.050781 -1.765625 5.4375 -1.765625 C 5.820312 -1.765625 6.242188 -1.890625 6.703125 -2.140625 Z M 7.59375 -0.5 " />
            </g>
        </g>
    </g>
    <g fill="#000000" fill-opacity="1">
        <g transform="translate(281.042139, 273.294385)">
            <g>
                <path
                    d="M 4.09375 -10.578125 L 4.09375 0 L 1.546875 0 L 1.546875 -10.578125 Z M 2.796875 -15.9375 C 3.273438 -15.9375 3.664062 -15.785156 3.96875 -15.484375 C 4.269531 -15.191406 4.421875 -14.820312 4.421875 -14.375 C 4.421875 -13.9375 4.269531 -13.570312 3.96875 -13.28125 C 3.664062 -12.988281 3.273438 -12.84375 2.796875 -12.84375 C 2.328125 -12.84375 1.941406 -12.988281 1.640625 -13.28125 C 1.347656 -13.570312 1.203125 -13.9375 1.203125 -14.375 C 1.203125 -14.820312 1.347656 -15.191406 1.640625 -15.484375 C 1.941406 -15.785156 2.328125 -15.9375 2.796875 -15.9375 Z M 2.796875 -15.9375 " />
            </g>
        </g>
    </g>
    <g fill="#000000" fill-opacity="1">
        <g transform="translate(286.67991, 273.294385)">
            <g>
                <path
                    d="M 5.859375 -10.875 C 7.421875 -10.875 8.632812 -10.378906 9.5 -9.390625 C 10.375 -8.398438 10.8125 -7.035156 10.8125 -5.296875 C 10.8125 -4.191406 10.613281 -3.210938 10.21875 -2.359375 C 9.820312 -1.515625 9.25 -0.859375 8.5 -0.390625 C 7.75 0.0664062 6.863281 0.296875 5.84375 0.296875 C 4.28125 0.296875 3.054688 -0.195312 2.171875 -1.1875 C 1.296875 -2.1875 0.859375 -3.554688 0.859375 -5.296875 C 0.859375 -6.398438 1.054688 -7.375 1.453125 -8.21875 C 1.859375 -9.0625 2.4375 -9.710938 3.1875 -10.171875 C 3.9375 -10.640625 4.828125 -10.875 5.859375 -10.875 Z M 5.859375 -8.9375 C 4.328125 -8.9375 3.5625 -7.722656 3.5625 -5.296875 C 3.5625 -4.046875 3.75 -3.125 4.125 -2.53125 C 4.507812 -1.9375 5.082031 -1.640625 5.84375 -1.640625 C 6.601562 -1.640625 7.171875 -1.9375 7.546875 -2.53125 C 7.929688 -3.132812 8.125 -4.054688 8.125 -5.296875 C 8.125 -6.535156 7.929688 -7.453125 7.546875 -8.046875 C 7.171875 -8.640625 6.609375 -8.9375 5.859375 -8.9375 Z M 5.859375 -8.9375 " />
            </g>
        </g>
    </g>
    <g fill="#000000" fill-opacity="1">
        <g transform="translate(298.355309, 273.294385)">
            <g>
                <path
                    d="M 7.1875 -10.875 C 8.125 -10.875 8.859375 -10.59375 9.390625 -10.03125 C 9.921875 -9.46875 10.1875 -8.675781 10.1875 -7.65625 L 10.1875 0 L 7.625 0 L 7.625 -7.265625 C 7.625 -7.890625 7.507812 -8.328125 7.28125 -8.578125 C 7.0625 -8.828125 6.738281 -8.953125 6.3125 -8.953125 C 5.875 -8.953125 5.476562 -8.816406 5.125 -8.546875 C 4.769531 -8.273438 4.425781 -7.878906 4.09375 -7.359375 L 4.09375 0 L 1.546875 0 L 1.546875 -10.578125 L 3.765625 -10.578125 L 3.953125 -9.203125 C 4.828125 -10.316406 5.90625 -10.875 7.1875 -10.875 Z M 7.1875 -10.875 " />
            </g>
        </g>
    </g>
    <g fill="#ffffff" fill-opacity="1">
        <g transform="translate(57.117188, 237.746996)">
            <g>
                <path
                    d="M 27.453125 -34.75 L 26.5 -27.703125 L 18.296875 -27.703125 L 18.296875 0 L 9.046875 0 L 9.046875 -27.703125 L 0.34375 -27.703125 L 0.34375 -34.75 Z M 27.453125 -34.75 " />
            </g>
        </g>
    </g>
    <g fill="#ffffff" fill-opacity="1">
        <g transform="translate(84.462958, 237.746996)">
            <g>
                <path
                    d="M 26.75 -13.75 C 26.75 -13.550781 26.695312 -12.550781 26.59375 -10.75 L 10.296875 -10.75 C 10.535156 -8.71875 11.113281 -7.328125 12.03125 -6.578125 C 12.945312 -5.828125 14.253906 -5.453125 15.953125 -5.453125 C 16.953125 -5.453125 17.941406 -5.640625 18.921875 -6.015625 C 19.910156 -6.398438 20.988281 -6.992188 22.15625 -7.796875 L 25.75 -2.90625 C 24.351562 -1.738281 22.753906 -0.8125 20.953125 -0.125 C 19.148438 0.5625 17.195312 0.90625 15.09375 0.90625 C 10.5625 0.90625 7.117188 -0.367188 4.765625 -2.921875 C 2.421875 -5.472656 1.25 -8.898438 1.25 -13.203125 C 1.25 -15.898438 1.738281 -18.332031 2.71875 -20.5 C 3.707031 -22.664062 5.164062 -24.378906 7.09375 -25.640625 C 9.03125 -26.910156 11.363281 -27.546875 14.09375 -27.546875 C 18 -27.546875 21.082031 -26.335938 23.34375 -23.921875 C 25.613281 -21.503906 26.75 -18.113281 26.75 -13.75 Z M 18 -16.25 C 17.96875 -18.019531 17.664062 -19.382812 17.09375 -20.34375 C 16.53125 -21.3125 15.582031 -21.796875 14.25 -21.796875 C 13.019531 -21.796875 12.085938 -21.363281 11.453125 -20.5 C 10.816406 -19.632812 10.414062 -18.117188 10.25 -15.953125 L 18 -15.953125 Z M 18 -16.25 " />
            </g>
        </g>
    </g>
    <g fill="#ffffff" fill-opacity="1">
        <g transform="translate(112.208665, 237.746996)">
            <g>
                <path
                    d="M 14.65625 -27.546875 C 16.582031 -27.546875 18.3125 -27.257812 19.84375 -26.6875 C 21.382812 -26.125 22.785156 -25.28125 24.046875 -24.15625 L 20.296875 -18.953125 C 18.765625 -20.179688 17.148438 -20.796875 15.453125 -20.796875 C 13.816406 -20.796875 12.582031 -20.203125 11.75 -19.015625 C 10.914062 -17.835938 10.5 -15.882812 10.5 -13.15625 C 10.5 -10.488281 10.914062 -8.628906 11.75 -7.578125 C 12.582031 -6.523438 13.78125 -6 15.34375 -6 C 16.175781 -6 16.941406 -6.128906 17.640625 -6.390625 C 18.347656 -6.660156 19.203125 -7.113281 20.203125 -7.75 L 24.046875 -2.296875 C 21.484375 -0.160156 18.4375 0.90625 14.90625 0.90625 C 12.101562 0.90625 9.675781 0.320312 7.625 -0.84375 C 5.570312 -2.007812 3.992188 -3.648438 2.890625 -5.765625 C 1.796875 -7.890625 1.25 -10.332031 1.25 -13.09375 C 1.25 -15.894531 1.796875 -18.382812 2.890625 -20.5625 C 3.992188 -22.75 5.550781 -24.457031 7.5625 -25.6875 C 9.582031 -26.925781 11.945312 -27.546875 14.65625 -27.546875 Z M 14.65625 -27.546875 " />
            </g>
        </g>
    </g>
    <g fill="#ffffff" fill-opacity="1">
        <g transform="translate(136.154957, 237.746996)">
            <g>
                <path
                    d="M 19.09375 -27.546875 C 21.363281 -27.546875 23.148438 -26.835938 24.453125 -25.421875 C 25.753906 -24.003906 26.40625 -22.046875 26.40625 -19.546875 L 26.40625 0 L 17.5 0 L 17.5 -17.953125 C 17.5 -19.117188 17.320312 -19.925781 16.96875 -20.375 C 16.625 -20.820312 16.117188 -21.046875 15.453125 -21.046875 C 14.085938 -21.046875 12.769531 -20.03125 11.5 -18 L 11.5 0 L 2.59375 0 L 2.59375 -37.15625 L 11.5 -38.046875 L 11.5 -24.046875 C 12.601562 -25.242188 13.769531 -26.125 15 -26.6875 C 16.226562 -27.257812 17.59375 -27.546875 19.09375 -27.546875 Z M 19.09375 -27.546875 " />
            </g>
        </g>
    </g>
    <g fill="#ffffff" fill-opacity="1">
        <g transform="translate(164.900511, 237.746996)">
            <g />
        </g>
    </g>
    <g fill="#ffffff" fill-opacity="1">
        <g transform="translate(176.298745, 237.746996)">
            <g>
                <path
                    d="M 26.75 -13.75 C 26.75 -13.550781 26.695312 -12.550781 26.59375 -10.75 L 10.296875 -10.75 C 10.535156 -8.71875 11.113281 -7.328125 12.03125 -6.578125 C 12.945312 -5.828125 14.253906 -5.453125 15.953125 -5.453125 C 16.953125 -5.453125 17.941406 -5.640625 18.921875 -6.015625 C 19.910156 -6.398438 20.988281 -6.992188 22.15625 -7.796875 L 25.75 -2.90625 C 24.351562 -1.738281 22.753906 -0.8125 20.953125 -0.125 C 19.148438 0.5625 17.195312 0.90625 15.09375 0.90625 C 10.5625 0.90625 7.117188 -0.367188 4.765625 -2.921875 C 2.421875 -5.472656 1.25 -8.898438 1.25 -13.203125 C 1.25 -15.898438 1.738281 -18.332031 2.71875 -20.5 C 3.707031 -22.664062 5.164062 -24.378906 7.09375 -25.640625 C 9.03125 -26.910156 11.363281 -27.546875 14.09375 -27.546875 C 18 -27.546875 21.082031 -26.335938 23.34375 -23.921875 C 25.613281 -21.503906 26.75 -18.113281 26.75 -13.75 Z M 18 -16.25 C 17.96875 -18.019531 17.664062 -19.382812 17.09375 -20.34375 C 16.53125 -21.3125 15.582031 -21.796875 14.25 -21.796875 C 13.019531 -21.796875 12.085938 -21.363281 11.453125 -20.5 C 10.816406 -19.632812 10.414062 -18.117188 10.25 -15.953125 L 18 -15.953125 Z M 18 -16.25 " />
            </g>
        </g>
    </g>
    <g fill="#ffffff" fill-opacity="1">
        <g transform="translate(204.044452, 237.746996)">
            <g>
                <path
                    d="M 20.296875 -1.296875 C 19.265625 -0.566406 18.066406 -0.0195312 16.703125 0.34375 C 15.335938 0.71875 14.003906 0.90625 12.703125 0.90625 C 6.535156 0.90625 3.453125 -2.492188 3.453125 -9.296875 L 3.453125 -20.546875 L 0 -20.546875 L 0 -26.65625 L 3.453125 -26.65625 L 3.453125 -32.296875 L 12.34375 -33.34375 L 12.34375 -26.65625 L 18.40625 -26.65625 L 17.5 -20.546875 L 12.34375 -20.546875 L 12.34375 -9.40625 C 12.34375 -8.195312 12.535156 -7.34375 12.921875 -6.84375 C 13.304688 -6.34375 13.882812 -6.09375 14.65625 -6.09375 C 15.582031 -6.09375 16.476562 -6.34375 17.34375 -6.84375 Z M 20.296875 -1.296875 " />
            </g>
        </g>
    </g>
    <g fill="#ffffff" fill-opacity="1">
        <g transform="translate(223.691415, 237.746996)">
            <g />
        </g>
    </g>
    <g fill="#ffffff" fill-opacity="1">
        <g transform="translate(235.08965, 237.746996)">
            <g>
                <path
                    d="M 17.5 -35.65625 C 19.695312 -35.65625 21.675781 -35.320312 23.4375 -34.65625 C 25.207031 -33.988281 26.863281 -33.003906 28.40625 -31.703125 L 24.046875 -26.546875 C 23.015625 -27.316406 22.015625 -27.898438 21.046875 -28.296875 C 20.078125 -28.703125 19.046875 -28.90625 17.953125 -28.90625 C 15.753906 -28.90625 14.035156 -27.953125 12.796875 -26.046875 C 11.566406 -24.148438 10.953125 -21.285156 10.953125 -17.453125 C 10.953125 -13.617188 11.578125 -10.765625 12.828125 -8.890625 C 14.078125 -7.023438 15.816406 -6.09375 18.046875 -6.09375 C 19.242188 -6.09375 20.351562 -6.332031 21.375 -6.8125 C 22.394531 -7.300781 23.503906 -8.015625 24.703125 -8.953125 L 28.796875 -3.75 C 27.429688 -2.382812 25.789062 -1.265625 23.875 -0.390625 C 21.957031 0.472656 19.882812 0.90625 17.65625 0.90625 C 14.351562 0.90625 11.472656 0.195312 9.015625 -1.21875 C 6.566406 -2.632812 4.675781 -4.71875 3.34375 -7.46875 C 2.007812 -10.21875 1.34375 -13.546875 1.34375 -17.453125 C 1.34375 -21.253906 2.023438 -24.519531 3.390625 -27.25 C 4.765625 -29.976562 6.664062 -32.0625 9.09375 -33.5 C 11.53125 -34.9375 14.332031 -35.65625 17.5 -35.65625 Z M 17.5 -35.65625 " />
            </g>
        </g>
    </g>
    <g fill="#ffffff" fill-opacity="1">
        <g transform="translate(264.035167, 237.746996)">
            <g>
                <path
                    d="M 11.5 -26.65625 L 11.5 0 L 2.59375 0 L 2.59375 -26.65625 Z M 7.0625 -41 C 8.5625 -41 9.785156 -40.53125 10.734375 -39.59375 C 11.679688 -38.664062 12.15625 -37.5 12.15625 -36.09375 C 12.15625 -34.695312 11.679688 -33.53125 10.734375 -32.59375 C 9.785156 -31.664062 8.5625 -31.203125 7.0625 -31.203125 C 5.5625 -31.203125 4.332031 -31.664062 3.375 -32.59375 C 2.425781 -33.53125 1.953125 -34.695312 1.953125 -36.09375 C 1.953125 -37.5 2.425781 -38.664062 3.375 -39.59375 C 4.332031 -40.53125 5.5625 -41 7.0625 -41 Z M 7.0625 -41 " />
            </g>
        </g>
    </g>
    <g fill="#ffffff" fill-opacity="1">
        <g transform="translate(278.132983, 237.746996)">
            <g>
                <path
                    d="M 26.75 -13.75 C 26.75 -13.550781 26.695312 -12.550781 26.59375 -10.75 L 10.296875 -10.75 C 10.535156 -8.71875 11.113281 -7.328125 12.03125 -6.578125 C 12.945312 -5.828125 14.253906 -5.453125 15.953125 -5.453125 C 16.953125 -5.453125 17.941406 -5.640625 18.921875 -6.015625 C 19.910156 -6.398438 20.988281 -6.992188 22.15625 -7.796875 L 25.75 -2.90625 C 24.351562 -1.738281 22.753906 -0.8125 20.953125 -0.125 C 19.148438 0.5625 17.195312 0.90625 15.09375 0.90625 C 10.5625 0.90625 7.117188 -0.367188 4.765625 -2.921875 C 2.421875 -5.472656 1.25 -8.898438 1.25 -13.203125 C 1.25 -15.898438 1.738281 -18.332031 2.71875 -20.5 C 3.707031 -22.664062 5.164062 -24.378906 7.09375 -25.640625 C 9.03125 -26.910156 11.363281 -27.546875 14.09375 -27.546875 C 18 -27.546875 21.082031 -26.335938 23.34375 -23.921875 C 25.613281 -21.503906 26.75 -18.113281 26.75 -13.75 Z M 18 -16.25 C 17.96875 -18.019531 17.664062 -19.382812 17.09375 -20.34375 C 16.53125 -21.3125 15.582031 -21.796875 14.25 -21.796875 C 13.019531 -21.796875 12.085938 -21.363281 11.453125 -20.5 C 10.816406 -19.632812 10.414062 -18.117188 10.25 -15.953125 L 18 -15.953125 Z M 18 -16.25 " />
            </g>
        </g>
    </g>
    <g fill="#ffffff" fill-opacity="1">
        <g transform="translate(305.878678, 237.746996)">
            <g>
                <path
                    d="M 6 -8.75 C 7.332031 -8.75 8.472656 -8.273438 9.421875 -7.328125 C 10.367188 -6.378906 10.84375 -5.238281 10.84375 -3.90625 C 10.84375 -2.570312 10.367188 -1.4375 9.421875 -0.5 C 8.472656 0.4375 7.332031 0.90625 6 0.90625 C 4.664062 0.90625 3.523438 0.4375 2.578125 -0.5 C 1.628906 -1.4375 1.15625 -2.570312 1.15625 -3.90625 C 1.15625 -5.238281 1.628906 -6.378906 2.578125 -7.328125 C 3.523438 -8.273438 4.664062 -8.75 6 -8.75 Z M 6 -8.75 " />
            </g>
        </g>
    </g>
    <g fill="#ffffff" fill-opacity="1">
        <g transform="translate(65.027344, 273.294385)">
            <g>
                <path d="M 4.265625 -13.8125 L 4.265625 0 L 1.625 0 L 1.625 -13.8125 Z M 4.265625 -13.8125 " />
            </g>
        </g>
    </g>
    <g fill="#ffffff" fill-opacity="1">
        <g transform="translate(70.905029, 273.294385)">
            <g>
                <path
                    d="M 10.4375 -14.8125 L 10.4375 0 L 8.1875 0 L 8 -1.34375 C 7.664062 -0.832031 7.238281 -0.429688 6.71875 -0.140625 C 6.207031 0.148438 5.628906 0.296875 4.984375 0.296875 C 3.691406 0.296875 2.695312 -0.203125 2 -1.203125 C 1.300781 -2.203125 0.953125 -3.5625 0.953125 -5.28125 C 0.953125 -6.363281 1.125 -7.328125 1.46875 -8.171875 C 1.820312 -9.015625 2.320312 -9.675781 2.96875 -10.15625 C 3.613281 -10.632812 4.363281 -10.875 5.21875 -10.875 C 6.226562 -10.875 7.113281 -10.492188 7.875 -9.734375 L 7.875 -15.09375 Z M 5.703125 -1.640625 C 6.148438 -1.640625 6.546875 -1.75 6.890625 -1.96875 C 7.242188 -2.1875 7.570312 -2.53125 7.875 -3 L 7.875 -7.84375 C 7.570312 -8.21875 7.265625 -8.492188 6.953125 -8.671875 C 6.640625 -8.859375 6.273438 -8.953125 5.859375 -8.953125 C 5.179688 -8.953125 4.644531 -8.648438 4.25 -8.046875 C 3.851562 -7.441406 3.65625 -6.523438 3.65625 -5.296875 C 3.65625 -3.992188 3.828125 -3.054688 4.171875 -2.484375 C 4.523438 -1.921875 5.035156 -1.640625 5.703125 -1.640625 Z M 5.703125 -1.640625 " />
            </g>
        </g>
    </g>
    <g fill="#ffffff" fill-opacity="1">
        <g transform="translate(82.880309, 273.294385)">
            <g>
                <path
                    d="M 10.21875 -5.546875 C 10.21875 -5.410156 10.195312 -5.0625 10.15625 -4.5 L 3.515625 -4.5 C 3.597656 -3.46875 3.863281 -2.734375 4.3125 -2.296875 C 4.769531 -1.859375 5.375 -1.640625 6.125 -1.640625 C 6.582031 -1.640625 7.019531 -1.710938 7.4375 -1.859375 C 7.851562 -2.015625 8.296875 -2.253906 8.765625 -2.578125 L 9.8125 -1.125 C 8.644531 -0.175781 7.34375 0.296875 5.90625 0.296875 C 4.289062 0.296875 3.046875 -0.191406 2.171875 -1.171875 C 1.296875 -2.160156 0.859375 -3.507812 0.859375 -5.21875 C 0.859375 -6.300781 1.046875 -7.269531 1.421875 -8.125 C 1.796875 -8.988281 2.332031 -9.660156 3.03125 -10.140625 C 3.738281 -10.628906 4.582031 -10.875 5.5625 -10.875 C 7.039062 -10.875 8.1875 -10.40625 9 -9.46875 C 9.8125 -8.53125 10.21875 -7.222656 10.21875 -5.546875 Z M 7.6875 -6.28125 C 7.6875 -8.132812 7 -9.0625 5.625 -9.0625 C 5 -9.0625 4.507812 -8.832031 4.15625 -8.375 C 3.800781 -7.914062 3.585938 -7.175781 3.515625 -6.15625 L 7.6875 -6.15625 Z M 7.140625 -16.40625 L 8.1875 -14.40625 L 3.65625 -12.59375 L 2.9375 -13.90625 Z M 7.140625 -16.40625 " />
            </g>
        </g>
    </g>
    <g fill="#ffffff" fill-opacity="1">
        <g transform="translate(93.855982, 273.294385)">
            <g>
                <path
                    d="M 10.21875 -5.546875 C 10.21875 -5.410156 10.195312 -5.0625 10.15625 -4.5 L 3.515625 -4.5 C 3.597656 -3.46875 3.863281 -2.734375 4.3125 -2.296875 C 4.769531 -1.859375 5.375 -1.640625 6.125 -1.640625 C 6.582031 -1.640625 7.019531 -1.710938 7.4375 -1.859375 C 7.851562 -2.015625 8.296875 -2.253906 8.765625 -2.578125 L 9.8125 -1.125 C 8.644531 -0.175781 7.34375 0.296875 5.90625 0.296875 C 4.289062 0.296875 3.046875 -0.191406 2.171875 -1.171875 C 1.296875 -2.160156 0.859375 -3.507812 0.859375 -5.21875 C 0.859375 -6.300781 1.046875 -7.269531 1.421875 -8.125 C 1.796875 -8.988281 2.332031 -9.660156 3.03125 -10.140625 C 3.738281 -10.628906 4.582031 -10.875 5.5625 -10.875 C 7.039062 -10.875 8.1875 -10.40625 9 -9.46875 C 9.8125 -8.53125 10.21875 -7.222656 10.21875 -5.546875 Z M 7.6875 -6.28125 C 7.6875 -8.132812 7 -9.0625 5.625 -9.0625 C 5 -9.0625 4.507812 -8.832031 4.15625 -8.375 C 3.800781 -7.914062 3.585938 -7.175781 3.515625 -6.15625 L 7.6875 -6.15625 Z M 7.6875 -6.28125 " />
            </g>
        </g>
    </g>
    <g fill="#ffffff" fill-opacity="1">
        <g transform="translate(104.831655, 273.294385)">
            <g>
                <path
                    d="M 4.875 -10.875 C 6.300781 -10.875 7.554688 -10.457031 8.640625 -9.625 L 7.640625 -8.125 C 6.734375 -8.695312 5.847656 -8.984375 4.984375 -8.984375 C 4.472656 -8.984375 4.078125 -8.882812 3.796875 -8.6875 C 3.515625 -8.5 3.375 -8.242188 3.375 -7.921875 C 3.375 -7.679688 3.429688 -7.476562 3.546875 -7.3125 C 3.671875 -7.15625 3.890625 -7.003906 4.203125 -6.859375 C 4.523438 -6.722656 4.988281 -6.570312 5.59375 -6.40625 C 6.738281 -6.09375 7.585938 -5.679688 8.140625 -5.171875 C 8.703125 -4.671875 8.984375 -3.96875 8.984375 -3.0625 C 8.984375 -2.007812 8.554688 -1.1875 7.703125 -0.59375 C 6.847656 0 5.785156 0.296875 4.515625 0.296875 C 3.648438 0.296875 2.859375 0.164062 2.140625 -0.09375 C 1.429688 -0.363281 0.816406 -0.734375 0.296875 -1.203125 L 1.578125 -2.640625 C 2.492188 -1.941406 3.453125 -1.59375 4.453125 -1.59375 C 5.023438 -1.59375 5.484375 -1.707031 5.828125 -1.9375 C 6.171875 -2.164062 6.34375 -2.476562 6.34375 -2.875 C 6.34375 -3.1875 6.273438 -3.429688 6.140625 -3.609375 C 6.015625 -3.785156 5.789062 -3.941406 5.46875 -4.078125 C 5.144531 -4.222656 4.632812 -4.394531 3.9375 -4.59375 C 2.851562 -4.894531 2.054688 -5.304688 1.546875 -5.828125 C 1.046875 -6.359375 0.796875 -7.015625 0.796875 -7.796875 C 0.796875 -8.390625 0.960938 -8.914062 1.296875 -9.375 C 1.640625 -9.84375 2.125 -10.207031 2.75 -10.46875 C 3.375 -10.738281 4.082031 -10.875 4.875 -10.875 Z M 4.875 -10.875 " />
            </g>
        </g>
    </g>
    <g fill="#ffffff" fill-opacity="1">
        <g transform="translate(114.347897, 273.294385)">
            <g />
        </g>
    </g>
    <g fill="#ffffff" fill-opacity="1">
        <g transform="translate(119.345921, 273.294385)">
            <g>
                <path
                    d="M 4.09375 -10.578125 L 4.09375 0 L 1.546875 0 L 1.546875 -10.578125 Z M 2.796875 -15.9375 C 3.273438 -15.9375 3.664062 -15.785156 3.96875 -15.484375 C 4.269531 -15.191406 4.421875 -14.820312 4.421875 -14.375 C 4.421875 -13.9375 4.269531 -13.570312 3.96875 -13.28125 C 3.664062 -12.988281 3.273438 -12.84375 2.796875 -12.84375 C 2.328125 -12.84375 1.941406 -12.988281 1.640625 -13.28125 C 1.347656 -13.570312 1.203125 -13.9375 1.203125 -14.375 C 1.203125 -14.820312 1.347656 -15.191406 1.640625 -15.484375 C 1.941406 -15.785156 2.328125 -15.9375 2.796875 -15.9375 Z M 2.796875 -15.9375 " />
            </g>
        </g>
    </g>
    <g fill="#ffffff" fill-opacity="1">
        <g transform="translate(124.983692, 273.294385)">
            <g>
                <path
                    d="M 7.1875 -10.875 C 8.125 -10.875 8.859375 -10.59375 9.390625 -10.03125 C 9.921875 -9.46875 10.1875 -8.675781 10.1875 -7.65625 L 10.1875 0 L 7.625 0 L 7.625 -7.265625 C 7.625 -7.890625 7.507812 -8.328125 7.28125 -8.578125 C 7.0625 -8.828125 6.738281 -8.953125 6.3125 -8.953125 C 5.875 -8.953125 5.476562 -8.816406 5.125 -8.546875 C 4.769531 -8.273438 4.425781 -7.878906 4.09375 -7.359375 L 4.09375 0 L 1.546875 0 L 1.546875 -10.578125 L 3.765625 -10.578125 L 3.953125 -9.203125 C 4.828125 -10.316406 5.90625 -10.875 7.1875 -10.875 Z M 7.1875 -10.875 " />
            </g>
        </g>
    </g>
    <g fill="#ffffff" fill-opacity="1">
        <g transform="translate(136.599113, 273.294385)">
            <g>
                <path
                    d="M 7.1875 -10.875 C 8.125 -10.875 8.859375 -10.59375 9.390625 -10.03125 C 9.921875 -9.46875 10.1875 -8.675781 10.1875 -7.65625 L 10.1875 0 L 7.625 0 L 7.625 -7.265625 C 7.625 -7.890625 7.507812 -8.328125 7.28125 -8.578125 C 7.0625 -8.828125 6.738281 -8.953125 6.3125 -8.953125 C 5.875 -8.953125 5.476562 -8.816406 5.125 -8.546875 C 4.769531 -8.273438 4.425781 -7.878906 4.09375 -7.359375 L 4.09375 0 L 1.546875 0 L 1.546875 -10.578125 L 3.765625 -10.578125 L 3.953125 -9.203125 C 4.828125 -10.316406 5.90625 -10.875 7.1875 -10.875 Z M 7.1875 -10.875 " />
            </g>
        </g>
    </g>
    <g fill="#ffffff" fill-opacity="1">
        <g transform="translate(148.214533, 273.294385)">
            <g>
                <path
                    d="M 5.859375 -10.875 C 7.421875 -10.875 8.632812 -10.378906 9.5 -9.390625 C 10.375 -8.398438 10.8125 -7.035156 10.8125 -5.296875 C 10.8125 -4.191406 10.613281 -3.210938 10.21875 -2.359375 C 9.820312 -1.515625 9.25 -0.859375 8.5 -0.390625 C 7.75 0.0664062 6.863281 0.296875 5.84375 0.296875 C 4.28125 0.296875 3.054688 -0.195312 2.171875 -1.1875 C 1.296875 -2.1875 0.859375 -3.554688 0.859375 -5.296875 C 0.859375 -6.398438 1.054688 -7.375 1.453125 -8.21875 C 1.859375 -9.0625 2.4375 -9.710938 3.1875 -10.171875 C 3.9375 -10.640625 4.828125 -10.875 5.859375 -10.875 Z M 5.859375 -8.9375 C 4.328125 -8.9375 3.5625 -7.722656 3.5625 -5.296875 C 3.5625 -4.046875 3.75 -3.125 4.125 -2.53125 C 4.507812 -1.9375 5.082031 -1.640625 5.84375 -1.640625 C 6.601562 -1.640625 7.171875 -1.9375 7.546875 -2.53125 C 7.929688 -3.132812 8.125 -4.054688 8.125 -5.296875 C 8.125 -6.535156 7.929688 -7.453125 7.546875 -8.046875 C 7.171875 -8.640625 6.609375 -8.9375 5.859375 -8.9375 Z M 5.859375 -8.9375 " />
            </g>
        </g>
    </g>
    <g fill="#ffffff" fill-opacity="1">
        <g transform="translate(159.889932, 273.294385)">
            <g>
                <path
                    d="M 10.046875 -10.578125 L 6.59375 0 L 3.546875 0 L 0.046875 -10.578125 L 2.8125 -10.578125 L 5.078125 -2.0625 L 7.40625 -10.578125 Z M 10.046875 -10.578125 " />
            </g>
        </g>
    </g>
    <g fill="#ffffff" fill-opacity="1">
        <g transform="translate(169.965962, 273.294385)">
            <g>
                <path
                    d="M 9.359375 -2.796875 C 9.359375 -2.390625 9.421875 -2.085938 9.546875 -1.890625 C 9.671875 -1.691406 9.875 -1.539062 10.15625 -1.4375 L 9.625 0.265625 C 9.019531 0.210938 8.523438 0.0664062 8.140625 -0.171875 C 7.765625 -0.421875 7.476562 -0.789062 7.28125 -1.28125 C 6.914062 -0.75 6.460938 -0.351562 5.921875 -0.09375 C 5.390625 0.164062 4.789062 0.296875 4.125 0.296875 C 3.070312 0.296875 2.238281 0 1.625 -0.59375 C 1.007812 -1.195312 0.703125 -1.984375 0.703125 -2.953125 C 0.703125 -4.109375 1.117188 -4.988281 1.953125 -5.59375 C 2.785156 -6.195312 3.972656 -6.5 5.515625 -6.5 L 6.84375 -6.5 L 6.84375 -7.09375 C 6.84375 -7.78125 6.6875 -8.257812 6.375 -8.53125 C 6.0625 -8.800781 5.554688 -8.9375 4.859375 -8.9375 C 4.085938 -8.9375 3.15625 -8.75 2.0625 -8.375 L 1.453125 -10.125 C 2.773438 -10.625 4.054688 -10.875 5.296875 -10.875 C 8.003906 -10.875 9.359375 -9.660156 9.359375 -7.234375 Z M 4.796875 -1.5625 C 5.660156 -1.5625 6.34375 -1.992188 6.84375 -2.859375 L 6.84375 -5 L 5.78125 -5 C 4.125 -5 3.296875 -4.382812 3.296875 -3.15625 C 3.296875 -2.65625 3.421875 -2.265625 3.671875 -1.984375 C 3.929688 -1.703125 4.304688 -1.5625 4.796875 -1.5625 Z M 4.796875 -1.5625 " />
            </g>
        </g>
    </g>
    <g fill="#ffffff" fill-opacity="1">
        <g transform="translate(180.881657, 273.294385)">
            <g>
                <path
                    d="M 7.1875 -10.875 C 8.125 -10.875 8.859375 -10.59375 9.390625 -10.03125 C 9.921875 -9.46875 10.1875 -8.675781 10.1875 -7.65625 L 10.1875 0 L 7.625 0 L 7.625 -7.265625 C 7.625 -7.890625 7.507812 -8.328125 7.28125 -8.578125 C 7.0625 -8.828125 6.738281 -8.953125 6.3125 -8.953125 C 5.875 -8.953125 5.476562 -8.816406 5.125 -8.546875 C 4.769531 -8.273438 4.425781 -7.878906 4.09375 -7.359375 L 4.09375 0 L 1.546875 0 L 1.546875 -10.578125 L 3.765625 -10.578125 L 3.953125 -9.203125 C 4.828125 -10.316406 5.90625 -10.875 7.1875 -10.875 Z M 7.1875 -10.875 " />
            </g>
        </g>
    </g>
    <g fill="#ffffff" fill-opacity="1">
        <g transform="translate(192.497078, 273.294385)">
            <g>
                <path
                    d="M 7.59375 -0.5 C 7.226562 -0.226562 6.8125 -0.03125 6.34375 0.09375 C 5.882812 0.226562 5.414062 0.296875 4.9375 0.296875 C 3.894531 0.285156 3.101562 -0.00390625 2.5625 -0.578125 C 2.03125 -1.160156 1.765625 -2.019531 1.765625 -3.15625 L 1.765625 -8.734375 L 0.09375 -8.734375 L 0.09375 -10.578125 L 1.765625 -10.578125 L 1.765625 -12.921875 L 4.3125 -13.21875 L 4.3125 -10.578125 L 6.78125 -10.578125 L 6.515625 -8.734375 L 4.3125 -8.734375 L 4.3125 -3.21875 C 4.3125 -2.695312 4.398438 -2.320312 4.578125 -2.09375 C 4.765625 -1.875 5.050781 -1.765625 5.4375 -1.765625 C 5.820312 -1.765625 6.242188 -1.890625 6.703125 -2.140625 Z M 7.59375 -0.5 " />
            </g>
        </g>
    </g>
    <g fill="#ffffff" fill-opacity="1">
        <g transform="translate(199.994124, 273.294385)">
            <g>
                <path
                    d="M 10.21875 -5.546875 C 10.21875 -5.410156 10.195312 -5.0625 10.15625 -4.5 L 3.515625 -4.5 C 3.597656 -3.46875 3.863281 -2.734375 4.3125 -2.296875 C 4.769531 -1.859375 5.375 -1.640625 6.125 -1.640625 C 6.582031 -1.640625 7.019531 -1.710938 7.4375 -1.859375 C 7.851562 -2.015625 8.296875 -2.253906 8.765625 -2.578125 L 9.8125 -1.125 C 8.644531 -0.175781 7.34375 0.296875 5.90625 0.296875 C 4.289062 0.296875 3.046875 -0.191406 2.171875 -1.171875 C 1.296875 -2.160156 0.859375 -3.507812 0.859375 -5.21875 C 0.859375 -6.300781 1.046875 -7.269531 1.421875 -8.125 C 1.796875 -8.988281 2.332031 -9.660156 3.03125 -10.140625 C 3.738281 -10.628906 4.582031 -10.875 5.5625 -10.875 C 7.039062 -10.875 8.1875 -10.40625 9 -9.46875 C 9.8125 -8.53125 10.21875 -7.222656 10.21875 -5.546875 Z M 7.6875 -6.28125 C 7.6875 -8.132812 7 -9.0625 5.625 -9.0625 C 5 -9.0625 4.507812 -8.832031 4.15625 -8.375 C 3.800781 -7.914062 3.585938 -7.175781 3.515625 -6.15625 L 7.6875 -6.15625 Z M 7.6875 -6.28125 " />
            </g>
        </g>
    </g>
    <g fill="#ffffff" fill-opacity="1">
        <g transform="translate(210.969797, 273.294385)">
            <g>
                <path
                    d="M 4.875 -10.875 C 6.300781 -10.875 7.554688 -10.457031 8.640625 -9.625 L 7.640625 -8.125 C 6.734375 -8.695312 5.847656 -8.984375 4.984375 -8.984375 C 4.472656 -8.984375 4.078125 -8.882812 3.796875 -8.6875 C 3.515625 -8.5 3.375 -8.242188 3.375 -7.921875 C 3.375 -7.679688 3.429688 -7.476562 3.546875 -7.3125 C 3.671875 -7.15625 3.890625 -7.003906 4.203125 -6.859375 C 4.523438 -6.722656 4.988281 -6.570312 5.59375 -6.40625 C 6.738281 -6.09375 7.585938 -5.679688 8.140625 -5.171875 C 8.703125 -4.671875 8.984375 -3.96875 8.984375 -3.0625 C 8.984375 -2.007812 8.554688 -1.1875 7.703125 -0.59375 C 6.847656 0 5.785156 0.296875 4.515625 0.296875 C 3.648438 0.296875 2.859375 0.164062 2.140625 -0.09375 C 1.429688 -0.363281 0.816406 -0.734375 0.296875 -1.203125 L 1.578125 -2.640625 C 2.492188 -1.941406 3.453125 -1.59375 4.453125 -1.59375 C 5.023438 -1.59375 5.484375 -1.707031 5.828125 -1.9375 C 6.171875 -2.164062 6.34375 -2.476562 6.34375 -2.875 C 6.34375 -3.1875 6.273438 -3.429688 6.140625 -3.609375 C 6.015625 -3.785156 5.789062 -3.941406 5.46875 -4.078125 C 5.144531 -4.222656 4.632812 -4.394531 3.9375 -4.59375 C 2.851562 -4.894531 2.054688 -5.304688 1.546875 -5.828125 C 1.046875 -6.359375 0.796875 -7.015625 0.796875 -7.796875 C 0.796875 -8.390625 0.960938 -8.914062 1.296875 -9.375 C 1.640625 -9.84375 2.125 -10.207031 2.75 -10.46875 C 3.375 -10.738281 4.082031 -10.875 4.875 -10.875 Z M 4.875 -10.875 " />
            </g>
        </g>
    </g>
    <g fill="#ffffff" fill-opacity="1">
        <g transform="translate(220.48604, 273.294385)">
            <g />
        </g>
    </g>
    <g fill="#ffffff" fill-opacity="1">
        <g transform="translate(225.484063, 273.294385)">
            <g>
                <path
                    d="M 10.21875 -5.546875 C 10.21875 -5.410156 10.195312 -5.0625 10.15625 -4.5 L 3.515625 -4.5 C 3.597656 -3.46875 3.863281 -2.734375 4.3125 -2.296875 C 4.769531 -1.859375 5.375 -1.640625 6.125 -1.640625 C 6.582031 -1.640625 7.019531 -1.710938 7.4375 -1.859375 C 7.851562 -2.015625 8.296875 -2.253906 8.765625 -2.578125 L 9.8125 -1.125 C 8.644531 -0.175781 7.34375 0.296875 5.90625 0.296875 C 4.289062 0.296875 3.046875 -0.191406 2.171875 -1.171875 C 1.296875 -2.160156 0.859375 -3.507812 0.859375 -5.21875 C 0.859375 -6.300781 1.046875 -7.269531 1.421875 -8.125 C 1.796875 -8.988281 2.332031 -9.660156 3.03125 -10.140625 C 3.738281 -10.628906 4.582031 -10.875 5.5625 -10.875 C 7.039062 -10.875 8.1875 -10.40625 9 -9.46875 C 9.8125 -8.53125 10.21875 -7.222656 10.21875 -5.546875 Z M 7.6875 -6.28125 C 7.6875 -8.132812 7 -9.0625 5.625 -9.0625 C 5 -9.0625 4.507812 -8.832031 4.15625 -8.375 C 3.800781 -7.914062 3.585938 -7.175781 3.515625 -6.15625 L 7.6875 -6.15625 Z M 7.6875 -6.28125 " />
            </g>
        </g>
    </g>
    <g fill="#ffffff" fill-opacity="1">
        <g transform="translate(236.459736, 273.294385)">
            <g>
                <path
                    d="M 7.1875 -10.875 C 8.125 -10.875 8.859375 -10.59375 9.390625 -10.03125 C 9.921875 -9.46875 10.1875 -8.675781 10.1875 -7.65625 L 10.1875 0 L 7.625 0 L 7.625 -7.265625 C 7.625 -7.890625 7.507812 -8.328125 7.28125 -8.578125 C 7.0625 -8.828125 6.738281 -8.953125 6.3125 -8.953125 C 5.875 -8.953125 5.476562 -8.816406 5.125 -8.546875 C 4.769531 -8.273438 4.425781 -7.878906 4.09375 -7.359375 L 4.09375 0 L 1.546875 0 L 1.546875 -10.578125 L 3.765625 -10.578125 L 3.953125 -9.203125 C 4.828125 -10.316406 5.90625 -10.875 7.1875 -10.875 Z M 7.1875 -10.875 " />
            </g>
        </g>
    </g>
    <g fill="#ffffff" fill-opacity="1">
        <g transform="translate(248.075157, 273.294385)">
            <g />
        </g>
    </g>
    <g fill="#ffffff" fill-opacity="1">
        <g transform="translate(253.073181, 273.294385)">
            <g>
                <path
                    d="M 9.359375 -2.796875 C 9.359375 -2.390625 9.421875 -2.085938 9.546875 -1.890625 C 9.671875 -1.691406 9.875 -1.539062 10.15625 -1.4375 L 9.625 0.265625 C 9.019531 0.210938 8.523438 0.0664062 8.140625 -0.171875 C 7.765625 -0.421875 7.476562 -0.789062 7.28125 -1.28125 C 6.914062 -0.75 6.460938 -0.351562 5.921875 -0.09375 C 5.390625 0.164062 4.789062 0.296875 4.125 0.296875 C 3.070312 0.296875 2.238281 0 1.625 -0.59375 C 1.007812 -1.195312 0.703125 -1.984375 0.703125 -2.953125 C 0.703125 -4.109375 1.117188 -4.988281 1.953125 -5.59375 C 2.785156 -6.195312 3.972656 -6.5 5.515625 -6.5 L 6.84375 -6.5 L 6.84375 -7.09375 C 6.84375 -7.78125 6.6875 -8.257812 6.375 -8.53125 C 6.0625 -8.800781 5.554688 -8.9375 4.859375 -8.9375 C 4.085938 -8.9375 3.15625 -8.75 2.0625 -8.375 L 1.453125 -10.125 C 2.773438 -10.625 4.054688 -10.875 5.296875 -10.875 C 8.003906 -10.875 9.359375 -9.660156 9.359375 -7.234375 Z M 4.796875 -1.5625 C 5.660156 -1.5625 6.34375 -1.992188 6.84375 -2.859375 L 6.84375 -5 L 5.78125 -5 C 4.125 -5 3.296875 -4.382812 3.296875 -3.15625 C 3.296875 -2.65625 3.421875 -2.265625 3.671875 -1.984375 C 3.929688 -1.703125 4.304688 -1.5625 4.796875 -1.5625 Z M 4.796875 -1.5625 " />
            </g>
        </g>
    </g>
    <g fill="#ffffff" fill-opacity="1">
        <g transform="translate(263.988864, 273.294385)">
            <g>
                <path
                    d="M 5.796875 -10.875 C 6.492188 -10.875 7.117188 -10.773438 7.671875 -10.578125 C 8.222656 -10.378906 8.742188 -10.066406 9.234375 -9.640625 L 8.09375 -8.09375 C 7.738281 -8.363281 7.394531 -8.554688 7.0625 -8.671875 C 6.726562 -8.796875 6.359375 -8.859375 5.953125 -8.859375 C 4.367188 -8.859375 3.578125 -7.648438 3.578125 -5.234375 C 3.578125 -4.015625 3.78125 -3.132812 4.1875 -2.59375 C 4.601562 -2.050781 5.191406 -1.78125 5.953125 -1.78125 C 6.328125 -1.78125 6.671875 -1.835938 6.984375 -1.953125 C 7.296875 -2.078125 7.664062 -2.273438 8.09375 -2.546875 L 9.234375 -0.921875 C 8.234375 -0.109375 7.09375 0.296875 5.8125 0.296875 C 4.800781 0.296875 3.921875 0.0703125 3.171875 -0.375 C 2.429688 -0.820312 1.859375 -1.457031 1.453125 -2.28125 C 1.054688 -3.101562 0.859375 -4.078125 0.859375 -5.203125 C 0.859375 -6.316406 1.054688 -7.300781 1.453125 -8.15625 C 1.859375 -9.019531 2.429688 -9.6875 3.171875 -10.15625 C 3.921875 -10.632812 4.796875 -10.875 5.796875 -10.875 Z M 5.796875 -10.875 " />
            </g>
        </g>
    </g>
    <g fill="#ffffff" fill-opacity="1">
        <g transform="translate(273.545092, 273.294385)">
            <g>
                <path
                    d="M 7.59375 -0.5 C 7.226562 -0.226562 6.8125 -0.03125 6.34375 0.09375 C 5.882812 0.226562 5.414062 0.296875 4.9375 0.296875 C 3.894531 0.285156 3.101562 -0.00390625 2.5625 -0.578125 C 2.03125 -1.160156 1.765625 -2.019531 1.765625 -3.15625 L 1.765625 -8.734375 L 0.09375 -8.734375 L 0.09375 -10.578125 L 1.765625 -10.578125 L 1.765625 -12.921875 L 4.3125 -13.21875 L 4.3125 -10.578125 L 6.78125 -10.578125 L 6.515625 -8.734375 L 4.3125 -8.734375 L 4.3125 -3.21875 C 4.3125 -2.695312 4.398438 -2.320312 4.578125 -2.09375 C 4.765625 -1.875 5.050781 -1.765625 5.4375 -1.765625 C 5.820312 -1.765625 6.242188 -1.890625 6.703125 -2.140625 Z M 7.59375 -0.5 " />
            </g>
        </g>
    </g>
    <g fill="#ffffff" fill-opacity="1">
        <g transform="translate(281.042139, 273.294385)">
            <g>
                <path
                    d="M 4.09375 -10.578125 L 4.09375 0 L 1.546875 0 L 1.546875 -10.578125 Z M 2.796875 -15.9375 C 3.273438 -15.9375 3.664062 -15.785156 3.96875 -15.484375 C 4.269531 -15.191406 4.421875 -14.820312 4.421875 -14.375 C 4.421875 -13.9375 4.269531 -13.570312 3.96875 -13.28125 C 3.664062 -12.988281 3.273438 -12.84375 2.796875 -12.84375 C 2.328125 -12.84375 1.941406 -12.988281 1.640625 -13.28125 C 1.347656 -13.570312 1.203125 -13.9375 1.203125 -14.375 C 1.203125 -14.820312 1.347656 -15.191406 1.640625 -15.484375 C 1.941406 -15.785156 2.328125 -15.9375 2.796875 -15.9375 Z M 2.796875 -15.9375 " />
            </g>
        </g>
    </g>
    <g fill="#ffffff" fill-opacity="1">
        <g transform="translate(286.67991, 273.294385)">
            <g>
                <path
                    d="M 5.859375 -10.875 C 7.421875 -10.875 8.632812 -10.378906 9.5 -9.390625 C 10.375 -8.398438 10.8125 -7.035156 10.8125 -5.296875 C 10.8125 -4.191406 10.613281 -3.210938 10.21875 -2.359375 C 9.820312 -1.515625 9.25 -0.859375 8.5 -0.390625 C 7.75 0.0664062 6.863281 0.296875 5.84375 0.296875 C 4.28125 0.296875 3.054688 -0.195312 2.171875 -1.1875 C 1.296875 -2.1875 0.859375 -3.554688 0.859375 -5.296875 C 0.859375 -6.398438 1.054688 -7.375 1.453125 -8.21875 C 1.859375 -9.0625 2.4375 -9.710938 3.1875 -10.171875 C 3.9375 -10.640625 4.828125 -10.875 5.859375 -10.875 Z M 5.859375 -8.9375 C 4.328125 -8.9375 3.5625 -7.722656 3.5625 -5.296875 C 3.5625 -4.046875 3.75 -3.125 4.125 -2.53125 C 4.507812 -1.9375 5.082031 -1.640625 5.84375 -1.640625 C 6.601562 -1.640625 7.171875 -1.9375 7.546875 -2.53125 C 7.929688 -3.132812 8.125 -4.054688 8.125 -5.296875 C 8.125 -6.535156 7.929688 -7.453125 7.546875 -8.046875 C 7.171875 -8.640625 6.609375 -8.9375 5.859375 -8.9375 Z M 5.859375 -8.9375 " />
            </g>
        </g>
    </g>
    <g fill="#ffffff" fill-opacity="1">
        <g transform="translate(298.355309, 273.294385)">
            <g>
                <path
                    d="M 7.1875 -10.875 C 8.125 -10.875 8.859375 -10.59375 9.390625 -10.03125 C 9.921875 -9.46875 10.1875 -8.675781 10.1875 -7.65625 L 10.1875 0 L 7.625 0 L 7.625 -7.265625 C 7.625 -7.890625 7.507812 -8.328125 7.28125 -8.578125 C 7.0625 -8.828125 6.738281 -8.953125 6.3125 -8.953125 C 5.875 -8.953125 5.476562 -8.816406 5.125 -8.546875 C 4.769531 -8.273438 4.425781 -7.878906 4.09375 -7.359375 L 4.09375 0 L 1.546875 0 L 1.546875 -10.578125 L 3.765625 -10.578125 L 3.953125 -9.203125 C 4.828125 -10.316406 5.90625 -10.875 7.1875 -10.875 Z M 7.1875 -10.875 " />
            </g>
        </g>
    </g>
</svg>